<?xml version="1.0" encoding="UTF-8" standalone="no"?>
<svg
   xmlns:dc="http://purl.org/dc/elements/1.1/"
   xmlns:cc="http://creativecommons.org/ns#"
   xmlns:rdf="http://www.w3.org/1999/02/22-rdf-syntax-ns#"
   xmlns:svg="http://www.w3.org/2000/svg"
   xmlns="http://www.w3.org/2000/svg"
   version="1.1"
   id="svg2"
   height="44.113129"
   width="314.56464">
  <defs
     id="defs4">
    <filter
       id="filter4610"
       style="color-interpolation-filters:sRGB">
      <feFlood
         id="feFlood4600"
         result="flood"
         flood-color="rgb(252,252,247)"
         flood-opacity="1" />
      <feComposite
         id="feComposite4602"
         result="composite1"
         operator="in"
         in2="SourceGraphic"
         in="flood" />
      <feGaussianBlur
         id="feGaussianBlur4604"
         result="blur"
         stdDeviation="1"
         in="composite1" />
      <feOffset
         id="feOffset4606"
         result="offset"
         dy="0"
         dx="2.77556e-017" />
      <feComposite
         id="feComposite4608"
         result="composite2"
         operator="over"
         in2="offset"
         in="SourceGraphic" />
    </filter>
  </defs>
  <metadata
     id="metadata7">
    <rdf:RDF>
      <cc:Work
         rdf:about="">
        <dc:format>image/svg+xml</dc:format>
        <dc:type
           rdf:resource="http://purl.org/dc/dcmitype/StillImage" />
        <dc:title></dc:title>
      </cc:Work>
    </rdf:RDF>
  </metadata>
  <g
     transform="translate(-29.067649,-53.687969)"
     id="layer1">
    <text
       id="text2985"
       y="32.093662"
       x="34.479874"
       style="font-style:normal;font-weight:normal;font-size:12.80000019px;line-height:0%;font-family:'Museo 500';-inkscape-font-specification:'Museo 500';letter-spacing:0px;word-spacing:0px;fill:#000000;fill-opacity:1;stroke:none;stroke-width:1.06666672"
       xml:space="preserve"><tspan
         style="font-size:51.20000076px;line-height:1.25;stroke-width:1.06666672"
         y="32.093662"
         x="34.479874"
         id="tspan2987"> </tspan></text>
    <flowRoot
       style="font-style:normal;font-weight:normal;font-size:12.80000019px;line-height:0.01%;font-family:'Museo 500';-inkscape-font-specification:'Museo 500';letter-spacing:0px;word-spacing:0px;fill:#000000;fill-opacity:1;stroke:none;stroke-width:1.06666672"
       id="flowRoot2989"
       xml:space="preserve"><flowRegion
         style="stroke-width:1.06666672"
         id="flowRegion2991"><rect
           style="stroke-width:1.13777781"
           y="111.82838"
           x="47.409828"
           height="396.51855"
           width="698.21747"
           id="rect2993" /></flowRegion><flowPara
         style="font-size:51.20000076px;line-height:1.25;stroke-width:1.06666672"
         id="flowPara2995"> </flowPara></flowRoot>    <g
       id="text2997"
       style="font-style:normal;font-weight:normal;font-size:48px;line-height:125%;font-family:'Museo 500';-inkscape-font-specification:'Museo 500';letter-spacing:0px;word-spacing:0px;fill:#0b3575;fill-opacity:1;stroke:none;filter:url(#filter4610)">
      <path
         id="path3779"
         d="M 58.609493,93.510938 V 61.767187 h -3.328124 v -4.403124 h 15.923436 c 3.34477,3.5e-5 6.066904,1.032587 8.166407,3.097655 2.09945,2.065136 3.149189,4.804196 3.149219,8.217189 -3e-5,3.413042 -1.058101,6.177882 -3.174219,8.294531 -2.11617,2.11668 -4.82997,3.175013 -8.141407,3.174999 h -7.474999 v 13.362501 z m 5.120313,-17.765626 h 6.656249 c 2.115607,1.8e-5 3.788,-0.631491 5.017188,-1.894531 1.229143,-1.263 1.843727,-2.986696 1.84375,-5.171094 -2.3e-5,-2.151014 -0.606013,-3.840856 -1.817969,-5.069531 -1.212,-1.228615 -2.875801,-1.842937 -4.991406,-1.842969 h -6.707812 z"
         style="fill:#0b3575;fill-opacity:1;stroke-width:1.06666672" />
      <path
         id="path3781"
         d="m 85.529806,86.240625 c -2e-6,-1.331242 0.273174,-2.517438 0.819531,-3.558594 0.54635,-1.041134 1.305986,-1.860403 2.278906,-2.457812 0.972911,-0.597382 1.97994,-1.100767 3.021094,-1.510156 1.041137,-0.40936 2.21874,-0.708058 3.532812,-0.896094 1.314049,-0.188005 2.397643,-0.307536 3.250781,-0.358594 0.853109,-0.05103 1.7578,-0.07654 2.71406,-0.07656 h 1.12657 v -0.256251 c -2e-5,-2.252064 -0.44377,-3.847635 -1.33125,-4.786718 -0.88752,-0.939041 -2.355227,-1.408572 -4.403129,-1.408594 -0.956263,2.2e-5 -1.903658,0.145074 -2.842188,0.435156 -0.93855,0.290126 -1.407821,0.810699 -1.407812,1.561719 v 1.485938 h -4.659375 v -2.560938 c -4e-6,-0.98956 0.332807,-1.834352 0.998437,-2.534375 0.665619,-0.699976 1.527337,-1.20336 2.585156,-1.510156 1.057804,-0.306746 2.013532,-0.520027 2.867188,-0.639844 0.853634,-0.119766 1.689831,-0.179661 2.508594,-0.179688 3.926029,2.7e-5 6.682529,0.89612 8.269529,2.688282 1.58696,1.792209 2.38045,4.27528 2.38047,7.449218 v 11.007813 c -2e-5,0.751046 0.3755,1.126567 1.12656,1.126562 h 2.09844 v 4.25 h -4.65781 c -2.15106,0 -3.22658,-0.990103 -3.22656,-2.970312 l 0.10312,-1.535937 h -0.10312 c -0.0677,0.136462 -0.15289,0.324223 -0.25547,0.563281 -0.10263,0.239065 -0.3844,0.648701 -0.84532,1.228905 -0.46095,0.580212 -0.98152,1.09219 -1.561714,1.535939 -0.580224,0.44375 -1.365119,0.853385 -2.354688,1.228905 -0.989596,0.375521 -2.064596,0.563281 -3.225,0.563281 -2.389591,0 -4.454955,-0.699738 -6.196094,-2.099218 -1.741149,-1.399476 -2.61172,-3.32786 -2.611718,-5.785156 z m 6.042187,-3.020312 c -0.682299,0.716676 -1.023445,1.638029 -1.023437,2.764062 -8e-6,1.126048 0.426554,2.098703 1.279687,2.917968 0.853116,0.819275 2.047906,1.22891 3.584375,1.228907 1.979153,3e-6 3.625766,-0.861714 4.939842,-2.585156 1.31405,-1.723431 1.97108,-3.609105 1.9711,-5.657032 V 81.01875 h -1.27969 c -1.262519,1.3e-5 -2.363298,0.04246 -3.302346,0.127344 -0.939075,0.08491 -2.031522,0.272668 -3.277344,0.563281 -1.245843,0.290637 -2.209904,0.794282 -2.892187,1.510938 z"
         style="fill:#0b3575;fill-opacity:1;stroke-width:1.06666672" />
      <path
         id="path3783"
         d="M 115.78606,90.234375 V 62.739062 c -1e-5,-0.749968 -0.37553,-1.124968 -1.12657,-1.124999 h -2.1 v -4.25 h 4.91562 c 1.16042,3.5e-5 1.99661,0.256024 2.5086,0.767968 0.51197,0.512014 0.76796,1.348211 0.76797,2.508594 v 27.49375 c -10e-6,0.751046 0.37551,1.126567 1.12656,1.126563 h 2.1 v 4.25 h -4.91563 c -1.16041,0 -1.99662,-0.25599 -2.50858,-0.767969 -0.51199,-0.511978 -0.76798,-1.348175 -0.76797,-2.508594 z"
         style="fill:#0b3575;fill-opacity:1;stroke-width:1.06666672" />
      <path
         id="path3785"
         d="m 127.07981,80.557812 c 0,-4.062483 1.22864,-7.339562 3.68593,-9.83125 2.45729,-2.49164 5.56353,-3.737473 9.31875,-3.7375 3.51561,2.7e-5 6.25467,1.143515 8.2172,3.43047 1.96247,2.286999 2.94372,5.188298 2.94374,8.703906 l -0.15312,2.048437 h -18.89375 c 0.13749,2.66251 1.05936,4.77032 2.76562,6.323437 1.70624,1.55313 3.75416,2.329692 6.14375,2.329687 1.33124,5e-6 2.62837,-0.255985 3.89141,-0.767968 1.263,-0.511974 2.18461,-1.007026 2.76484,-1.485156 l 0.92188,-0.76875 2.14999,3.532812 c -0.27294,0.273962 -0.68257,0.624222 -1.2289,1.050782 -0.54638,0.426564 -1.68987,0.989584 -3.43047,1.689062 -1.74065,0.699479 -3.51565,1.049218 -5.325,1.049218 -4.06147,0 -7.37214,-1.28854 -9.93203,-3.865624 -2.5599,-2.577077 -3.83984,-5.810928 -3.83984,-9.701563 z m 5.325,-3.021875 h 13.72031 c -0.0677,-2.081232 -0.68179,-3.702323 -1.84219,-4.863281 -1.16043,-1.160915 -2.5771,-1.741383 -4.25,-1.741406 -1.94585,2.3e-5 -3.60991,0.571897 -4.99218,1.715625 -1.38231,1.143769 -2.26095,2.773456 -2.63594,4.889062 z"
         style="fill:#0b3575;fill-opacity:1;stroke-width:1.06666672" />
      <path
         id="path3787"
         d="m 168.35949,93.510938 v -4.403126 h 1.74063 c 0.68333,5e-6 1.05885,-0.375515 1.12656,-1.126562 l 2.45781,-30.617187 h 5.27344 l 8.5,19.148437 1.79219,4.55625 h 0.10155 c 0.61456,-1.740611 1.21196,-3.259359 1.79219,-4.55625 l 8.5,-19.148437 h 5.27343 l 2.45781,30.617187 c 0.0676,0.751047 0.44267,1.126567 1.12501,1.126562 h 1.69062 v 4.403126 h -4.55781 c -1.12608,0 -1.93649,-0.25599 -2.43125,-0.767969 -0.49482,-0.511978 -0.77659,-1.348175 -0.84531,-2.508594 L 200.87198,71.135937 200.77043,65.8125 h -0.10314 c -0.68233,2.252109 -1.31358,4.026586 -1.89375,5.323437 l -7.32188,15.871875 h -4.30156 l -7.32188,-15.871875 c -0.27292,-0.54581 -0.57137,-1.27107 -0.89531,-2.175781 -0.32397,-0.904662 -0.57136,-1.663775 -0.74219,-2.277343 l -0.30781,-0.921875 h -0.10154 c 0.0333,2.150025 -0.001,3.94169 -0.10315,5.374999 l -1.43281,19.098438 c -0.0688,1.160419 -0.35053,1.996616 -0.84531,2.508594 -0.4948,0.511979 -1.3224,0.767969 -2.48282,0.767969 z"
         style="fill:#0b3575;fill-opacity:1;stroke-width:1.06666672" />
      <path
         id="path3789"
         d="m 217.12355,90.234375 c -2.69583,-2.594786 -4.04374,-5.837751 -4.04374,-9.728906 0,-3.891129 1.34817,-7.116647 4.04453,-9.676562 2.69634,-2.559871 5.99035,-3.839818 9.88203,-3.839845 3.92498,2.7e-5 7.23566,1.279974 9.93203,3.839845 2.69632,2.559915 4.0445,5.785433 4.04453,9.676562 -3e-5,3.891155 -1.3568,7.13386 -4.07031,9.728125 -2.71357,2.594272 -6.01591,3.891405 -9.90703,3.891405 -3.89116,0 -7.18516,-1.296873 -9.88204,-3.890624 z m 3.60938,-16.332812 c -1.72292,1.740643 -2.58439,3.942202 -2.58438,6.604687 -1e-5,2.662511 0.86171,4.881258 2.58516,6.65625 1.72343,1.775005 3.81431,2.662504 6.27266,2.662499 2.49165,5e-6 4.5992,-0.878901 6.32265,-2.636717 1.72342,-1.757805 2.58513,-3.985147 2.58516,-6.682032 -3e-5,-2.662485 -0.86174,-4.864044 -2.58516,-6.604687 -1.72345,-1.740604 -3.831,-2.610916 -6.32265,-2.610938 -2.45835,2.2e-5 -4.5495,0.870334 -6.27344,2.610938 z"
         style="fill:#0b3575;fill-opacity:1;stroke-width:1.06666672" />
      <path
         id="path3791"
         d="m 248.72355,90.234375 c -2.69583,-2.594786 -4.04374,-5.837751 -4.04374,-9.728906 0,-3.891129 1.34817,-7.116647 4.04453,-9.676562 2.69634,-2.559871 5.99035,-3.839818 9.88203,-3.839845 3.92498,2.7e-5 7.23566,1.279974 9.93203,3.839845 2.69632,2.559915 4.0445,5.785433 4.04453,9.676562 -3e-5,3.891155 -1.3568,7.13386 -4.07031,9.728125 -2.71357,2.594272 -6.01591,3.891405 -9.90703,3.891405 -3.89116,0 -7.18516,-1.296873 -9.88204,-3.890624 z m 3.60938,-16.332812 c -1.72292,1.740643 -2.58439,3.942202 -2.58438,6.604687 -1e-5,2.662511 0.86171,4.881258 2.58516,6.65625 1.72343,1.775005 3.81431,2.662504 6.27266,2.662499 2.49165,5e-6 4.5992,-0.878901 6.32265,-2.636717 1.72342,-1.757805 2.58513,-3.985147 2.58516,-6.682032 -3e-5,-2.662485 -0.86174,-4.864044 -2.58516,-6.604687 -1.72345,-1.740604 -3.831,-2.610916 -6.32265,-2.610938 -2.45835,2.2e-5 -4.5495,0.870334 -6.27344,2.610938 z"
         style="fill:#0b3575;fill-opacity:1;stroke-width:1.06666672" />
      <path
         id="path3793"
         d="M 278.78762,93.510938 V 72.979687 c 0,-0.75102 -0.37552,-1.12654 -1.12656,-1.126562 h -2.09845 v -4.25 h 4.76094 c 2.18438,2.6e-5 3.27656,0.955754 3.27657,2.867188 v 0.973437 l -0.10155,1.484375 h 0.10155 c 0.68333,-1.467687 1.84425,-2.824456 3.48281,-4.070313 1.63853,-1.245807 3.72029,-1.868723 6.24532,-1.86875 3.03851,2.7e-5 5.28305,0.819297 6.73358,2.457813 1.4505,1.638564 2.17576,4.130228 2.17579,7.475 v 11.2125 c -3e-5,0.751046 0.37549,1.126567 1.12656,1.126563 h 2.09843 v 4.25 h -4.91406 c -1.16043,0 -1.99664,-0.25599 -2.50859,-0.767969 -0.512,-0.511978 -0.76799,-1.348175 -0.76797,-2.508594 V 78.048437 c -2e-5,-2.082274 -0.33283,-3.686439 -0.99843,-4.8125 -0.66566,-1.12602 -1.95419,-1.68904 -3.86563,-1.689062 -1.98023,2.2e-5 -3.71277,0.588823 -5.19766,1.766406 -1.4849,1.177624 -2.48308,2.704965 -2.99453,4.582031 -0.3073,0.887516 -0.46095,2.047931 -0.46093,3.48125 v 12.134376 z"
         style="fill:#0b3575;fill-opacity:1;stroke-width:1.06666672" />
    </g>
    <g
       id="text3769"
       style="font-style:normal;font-weight:normal;font-size:10px;line-height:125%;font-family:'Museo 500';-inkscape-font-specification:'Museo 500';letter-spacing:0px;word-spacing:0px;fill:#0b3575;fill-opacity:1;stroke:none;filter:url(#filter4610)">
      <path
         id="path3774"
         d="m 304.55762,64.957287 v -6.613281 h -1.51465 c -0.15647,7e-6 -0.2347,0.07824 -0.2347,0.234701 v 0.479818 h -0.94922 v -0.991863 c 0,-0.241746 0.0462,-0.408847 0.13851,-0.501302 0.0924,-0.09244 0.2595,-0.138663 0.50146,-0.138671 h 5.18392 c 0.24175,8e-6 0.40885,0.04623 0.50131,0.138671 0.0925,0.09246 0.13866,0.259556 0.13866,0.501302 v 0.991863 h -0.94921 v -0.479818 c 0,-0.156461 -0.0783,-0.234694 -0.2347,-0.234701 h -1.51465 v 6.613281 z"
         style="fill:#0b3575;fill-opacity:1;stroke-width:1.06666672" />
      <path
         id="path3776"
         d="M 308.70378,64.957287 V 64.03997 h 0.36263 c 0.14236,10e-7 0.22059,-0.07823 0.2347,-0.234701 l 0.51204,-6.37858 h 1.09864 l 1.77082,3.989258 0.37338,0.949218 h 0.0211 c 0.12803,-0.362627 0.25249,-0.679033 0.37336,-0.949218 l 1.77084,-3.989258 h 1.09864 l 0.51204,6.37858 c 0.0141,0.156469 0.0923,0.234702 0.23438,0.234701 h 0.35221 v 0.917317 h -0.94955 c -0.2346,0 -0.40343,-0.05333 -0.50651,-0.159993 -0.10304,-0.106656 -0.16178,-0.280869 -0.17611,-0.522623 l -0.30924,-3.978842 -0.0211,-1.109049 h -0.0214 c -0.14215,0.469189 -0.27366,0.838872 -0.39452,1.109049 l -1.5254,3.306641 h -0.89616 l -1.52539,-3.306641 c -0.0568,-0.113711 -0.11903,-0.264806 -0.18653,-0.453287 -0.0675,-0.188472 -0.11903,-0.346621 -0.15461,-0.474447 l -0.0641,-0.192058 h -0.0211 c 0.007,0.447922 -2.2e-4,0.821186 -0.0214,1.119792 l -0.2985,3.978842 c -0.0143,0.241754 -0.0731,0.415962 -0.17611,0.522623 -0.10304,0.106667 -0.2755,0.159993 -0.51725,0.159993 z"
         style="fill:#0b3575;fill-opacity:1;stroke-width:1.06666672" />
    </g>
  </g>
</svg>
