<?xml version="1.0" encoding="UTF-8" standalone="no"?>
<!-- This Source Code Form is subject to the terms of the Mozilla Public
   - License, v. 2.0. If a copy of the MPL was not distributed with this
   - file, You can obtain one at http://mozilla.org/MPL/2.0/. -->

<svg
   xmlns:dc="http://purl.org/dc/elements/1.1/"
   xmlns:cc="http://creativecommons.org/ns#"
   xmlns:rdf="http://www.w3.org/1999/02/22-rdf-syntax-ns#"
   xmlns:svg="http://www.w3.org/2000/svg"
   xmlns="http://www.w3.org/2000/svg"
   xmlns:sodipodi="http://sodipodi.sourceforge.net/DTD/sodipodi-0.dtd"
   xmlns:inkscape="http://www.inkscape.org/namespaces/inkscape"
   viewBox="-45 31 40 40"
   id="svg2"
   version="1.1"
   inkscape:version="0.91 r13725"
   sodipodi:docname="silhouette-40.svg">
  <metadata
     id="metadata10">
    <rdf:RDF>
      <cc:Work
         rdf:about="">
        <dc:format>image/svg+xml</dc:format>
        <dc:type
           rdf:resource="http://purl.org/dc/dcmitype/StillImage" />
      </cc:Work>
    </rdf:RDF>
  </metadata>
  <defs
     id="defs8" />
  <sodipodi:namedview
     pagecolor="#ffffff"
     bordercolor="#666666"
     borderopacity="1"
     objecttolerance="10"
     gridtolerance="10"
     guidetolerance="10"
     inkscape:pageopacity="0"
     inkscape:pageshadow="2"
     inkscape:window-width="1365"
     inkscape:window-height="882"
     id="namedview6"
     showgrid="false"
     inkscape:zoom="5.9"
     inkscape:cx="20"
     inkscape:cy="20"
     inkscape:window-x="0"
     inkscape:window-y="0"
     inkscape:window-maximized="0"
     inkscape:current-layer="svg2" />
  <path
     style="fill:#cdcdcd;fill-opacity:1;stroke:none;stroke-width:0.09873105;stroke-linejoin:round;stroke-miterlimit:4;stroke-dasharray:none;stroke-opacity:0.65116278"
     d="m -27.647643,65.562283 c -0.532266,-0.100118 -1.463783,-0.355128 -2.070039,-0.566689 -0.606256,-0.211562 -1.59879,-0.651757 -2.205632,-0.978215 -0.606843,-0.326455 -1.521343,-0.917997 -2.032223,-1.314534 -0.510881,-0.39654 -1.342893,-1.175053 -1.848918,-1.730035 -0.506024,-0.554979 -1.183065,-1.42169 -1.504535,-1.926023 -0.32147,-0.504334 -0.802448,-1.401422 -1.068839,-1.993528 -0.266391,-0.592105 -0.635808,-1.643085 -0.820925,-2.335512 -0.312771,-1.169907 -0.336206,-1.425857 -0.331321,-3.618599 0.0048,-2.138674 0.0354,-2.475573 0.327132,-3.597604 0.177031,-0.680878 0.544081,-1.731858 0.815668,-2.335512 0.271586,-0.603654 0.747835,-1.495577 1.05833,-1.982051 0.310495,-0.486475 0.977642,-1.341898 1.48255,-1.900939 0.504907,-0.559041 1.332191,-1.341122 1.838407,-1.737956 0.506217,-0.396836 1.425343,-0.998095 2.042503,-1.336133 0.617159,-0.33804 1.618054,-0.785335 2.224208,-0.993992 0.606156,-0.208656 1.621533,-0.470387 2.256394,-0.581623 0.634861,-0.111237 1.796132,-0.202248 2.580602,-0.202248 0.78447,0 1.944288,0.09268 2.577375,0.205948 2.101951,0.376082 4.03914,1.17726 5.80404,2.400423 0.550767,0.381708 1.398178,1.076656 1.883139,1.544328 0.484961,0.467673 1.23565,1.341474 1.668201,1.941782 0.432548,0.600307 1.033197,1.613108 1.334776,2.250669 0.301577,0.63756 0.665075,1.55833 0.807773,2.046154 0.394436,1.348408 0.619365,2.902287 0.619365,4.278754 0,0.683137 -0.08218,1.732921 -0.182621,2.332852 -0.100442,0.599932 -0.319456,1.540146 -0.486697,2.089368 -0.167241,0.549221 -0.528267,1.453922 -0.802279,2.010448 -0.274014,0.556523 -0.749488,1.378645 -1.056607,1.826935 -0.30712,0.448289 -0.893018,1.187654 -1.301994,1.643035 -0.408978,0.455381 -1.216104,1.198212 -1.793613,1.650735 -0.57751,0.452525 -1.523679,1.078293 -2.102596,1.390594 -0.578918,0.312302 -1.543498,0.739136 -2.143509,0.948518 -0.600012,0.209382 -1.580076,0.469544 -2.177922,0.578135 -1.349694,0.245155 -4.067112,0.241382 -5.390193,-0.0075 z m 9.410068,-3.387599 c 0.475371,-0.292247 1.167899,-0.772841 1.53895,-1.067986 0.932873,-0.742033 2.248273,-2.221799 2.724123,-3.064515 0.218549,-0.387045 0.52061,-0.916581 0.671245,-1.176749 0.342973,-0.592356 0.810457,-1.877074 1.077168,-2.960223 0.112282,-0.455985 0.232651,-1.489127 0.26749,-2.29587 0.0462,-1.069771 0.0082,-1.771535 -0.140408,-2.592598 -0.112064,-0.619187 -0.368187,-1.599131 -0.569164,-2.177653 -0.200974,-0.578522 -0.60597,-1.478136 -0.899989,-1.999141 -0.294018,-0.521005 -0.859058,-1.349059 -1.25564,-1.840121 -0.396585,-0.491061 -1.168023,-1.266932 -1.714306,-1.724158 -0.546284,-0.457227 -1.48117,-1.097332 -2.077528,-1.422458 -0.596357,-0.325124 -1.607783,-0.762979 -2.247613,-0.97301 -0.639831,-0.210032 -1.676224,-0.45383 -2.303095,-0.541774 -1.536677,-0.215581 -3.554151,-0.09119 -5.078202,0.313095 -0.65851,0.174686 -1.712262,0.571699 -2.341671,0.882252 -0.629408,0.310553 -1.489028,0.808423 -1.910265,1.106377 -0.421239,0.297955 -1.166235,0.937842 -1.655549,1.421971 -0.489314,0.484132 -1.164142,1.294947 -1.499618,1.801811 -0.335475,0.506865 -0.809438,1.335498 -1.05325,1.841409 -0.243812,0.505911 -0.586388,1.424259 -0.761281,2.040773 -0.242146,0.853591 -0.333897,1.518398 -0.384695,2.787425 -0.06389,1.596021 0.02895,2.630412 0.34009,3.789467 0.0711,0.264865 0.173366,0.45319 0.227253,0.4185 0.05389,-0.03469 0.13654,-0.595159 0.183673,-1.245488 0.116739,-1.610721 0.603675,-4.516583 0.985064,-5.878507 0.17281,-0.617094 0.47324,-1.449346 0.667623,-1.84945 0.194382,-0.400103 0.56217,-0.950695 0.817305,-1.223535 0.255135,-0.27284 0.743076,-0.628618 1.084313,-0.79062 0.382597,-0.181636 1.183731,-0.373532 2.089898,-0.500596 2.057893,-0.288557 3.239413,-0.534359 4.392864,-0.913889 0.973784,-0.320411 1.012984,-0.323208 1.856738,-0.132492 0.474073,0.107156 1.310104,0.374843 1.857846,0.59486 0.54774,0.220016 1.372263,0.690043 1.832268,1.044504 0.460006,0.354461 0.974136,0.718226 1.142513,0.808368 0.168376,0.09014 0.485688,0.20417 0.705138,0.253397 0.21945,0.04923 0.453646,0.195857 0.520437,0.325846 0.06679,0.12999 0.121436,0.381617 0.121436,0.559172 0,0.177554 0.159875,0.585406 0.355278,0.906337 0.31563,0.518397 0.464779,0.984885 0.989431,3.094621 0.09115,0.366532 0.396341,0.85602 0.934312,1.498506 0.43942,0.524791 1.053974,1.136927 1.365675,1.360302 0.3117,0.223374 1.010559,0.572153 1.553019,0.775062 l 0.986292,0.368927 -0.75672,-0.07046 c -0.416195,-0.03876 -1.036126,-0.181047 -1.377624,-0.316202 -0.458172,-0.181331 -0.620907,-0.20343 -0.620907,-0.08431 0,0.08878 0.170912,0.554042 0.379805,1.033904 0.208893,0.479862 0.429634,1.018722 0.490536,1.197465 0.09477,0.278133 0.08856,0.29327 -0.04305,0.104996 -0.08458,-0.120993 -0.33488,-0.552796 -0.55622,-0.959563 -0.221342,-0.406765 -0.901786,-1.340911 -1.512097,-2.075881 -0.610314,-0.734968 -1.261595,-1.651988 -1.447293,-2.037822 -0.185696,-0.385834 -0.454545,-1.103293 -0.597441,-1.594355 -0.142896,-0.491061 -0.388818,-1.058758 -0.546495,-1.261548 l -0.286683,-0.368711 -0.756376,0.272646 c -0.416009,0.149956 -1.335139,0.415086 -2.042514,0.589179 -0.707374,0.174094 -1.520457,0.439552 -1.80685,0.589907 -0.779144,0.409049 -1.917442,1.289412 -2.56614,1.984659 -0.687729,0.737079 -1.13476,1.700281 -1.016633,2.190506 0.0449,0.186362 0.258812,0.568689 0.475348,0.849616 0.216534,0.280927 0.666706,1.017438 1.000381,1.636691 0.333676,0.619252 0.925432,1.491159 1.315015,1.93757 0.389583,0.446409 1.133502,1.124055 1.65315,1.505878 0.51965,0.381824 1.659281,1.389661 2.532514,2.239639 0.873231,0.849977 1.641497,1.545414 1.707254,1.545414 0.06576,0 0.508501,-0.239112 0.983873,-0.531362 z m -6.123628,-16.684506 c 0.172762,-0.06842 0.314111,-0.205766 0.314111,-0.305224 0,-0.09946 -0.08716,-0.215673 -0.193698,-0.258254 -0.249071,-0.09955 -0.833,-0.09955 -1.082071,0 -0.106534,0.04258 -0.193698,0.154522 -0.193698,0.248759 0,0.198932 0.336535,0.429623 0.634919,0.435232 0.11348,0.0021 0.347677,-0.0521 0.520437,-0.120513 z"
     id="path4158"
     inkscape:connector-curvature="0"
     sodipodi:nodetypes="csssssssssssssssssssssssssssssssssccssssssssssssssssssssssscssssssssssssssssssscssssssssssscssssssssssssssssscs" />
</svg>
