<?xml version="1.0" encoding="UTF-8" standalone="no"?>
<svg
   xmlns:dc="http://purl.org/dc/elements/1.1/"
   xmlns:cc="http://creativecommons.org/ns#"
   xmlns:rdf="http://www.w3.org/1999/02/22-rdf-syntax-ns#"
   xmlns:svg="http://www.w3.org/2000/svg"
   xmlns="http://www.w3.org/2000/svg"
   enable-background="new 0 0 378 38"
   viewBox="0 0 378 38"
   height="38"
   width="378"
   y="0px"
   x="0px"
   id="strataToolbarSVG"
   version="1.1">
  <metadata
     id="metadata146">
    <rdf:RDF>
      <cc:Work
         rdf:about="">
        <dc:format>image/svg+xml</dc:format>
        <dc:type
           rdf:resource="http://purl.org/dc/dcmitype/StillImage" />
        <dc:title></dc:title>
      </cc:Work>
    </rdf:RDF>
  </metadata>
  <defs
     id="defs144">
    <filter
       id="filter1070"
       style="color-interpolation-filters:sRGB;">
      <feFlood
         id="feFlood1060"
         result="flood"
         flood-color="rgb(0,0,0)"
         flood-opacity="0.498039" />
      <feComposite
         id="feComposite1062"
         result="composite1"
         operator="in"
         in2="SourceGraphic"
         in="flood" />
      <feGaussianBlur
         id="feGaussianBlur1064"
         result="blur"
         stdDeviation="0.5"
         in="composite1" />
      <feOffset
         id="feOffset1066"
         result="offset"
         dy="0"
         dx="0" />
      <feComposite
         id="feComposite1068"
         result="fbSourceGraphic"
         operator="over"
         in2="offset"
         in="SourceGraphic" />
      <feColorMatrix
         id="feColorMatrix1072"
         values="0 0 0 -1 0 0 0 0 -1 0 0 0 0 -1 0 0 0 0 1 0"
         in="fbSourceGraphic"
         result="fbSourceGraphicAlpha" />
      <feFlood
         in="fbSourceGraphic"
         result="flood"
         flood-color="rgb(0,0,0)"
         flood-opacity="0.498039"
         id="feFlood1074" />
      <feComposite
         result="composite1"
         operator="in"
         in="flood"
         id="feComposite1076"
         in2="fbSourceGraphic" />
      <feGaussianBlur
         result="blur"
         stdDeviation="0.5"
         in="composite1"
         id="feGaussianBlur1078" />
      <feOffset
         result="offset"
         dy="0"
         dx="0"
         id="feOffset1080" />
      <feComposite
         result="fbSourceGraphic"
         operator="over"
         in="fbSourceGraphic"
         id="feComposite1082"
         in2="offset" />
      <feColorMatrix
         id="feColorMatrix1084"
         values="0 0 0 -1 0 0 0 0 -1 0 0 0 0 -1 0 0 0 0 1 0"
         in="fbSourceGraphic"
         result="fbSourceGraphicAlpha" />
      <feFlood
         in="fbSourceGraphic"
         result="flood"
         flood-color="rgb(0,0,0)"
         flood-opacity="0.498039"
         id="feFlood1086" />
      <feComposite
         result="composite1"
         operator="in"
         in="flood"
         id="feComposite1088"
         in2="fbSourceGraphic" />
      <feGaussianBlur
         result="blur"
         stdDeviation="0.5"
         in="composite1"
         id="feGaussianBlur1090" />
      <feOffset
         result="offset"
         dy="0"
         dx="0"
         id="feOffset1092" />
      <feComposite
         result="fbSourceGraphic"
         operator="over"
         in="fbSourceGraphic"
         id="feComposite1094"
         in2="offset" />
      <feColorMatrix
         id="feColorMatrix1096"
         values="0 0 0 -1 0 0 0 0 -1 0 0 0 0 -1 0 0 0 0 1 0"
         in="fbSourceGraphic"
         result="fbSourceGraphicAlpha" />
      <feFlood
         in="fbSourceGraphic"
         result="flood"
         flood-color="rgb(0,0,0)"
         flood-opacity="0.498039"
         id="feFlood1098" />
      <feComposite
         result="composite1"
         operator="in"
         in="flood"
         id="feComposite1100"
         in2="fbSourceGraphic" />
      <feGaussianBlur
         result="blur"
         stdDeviation="0.5"
         in="composite1"
         id="feGaussianBlur1102" />
      <feOffset
         result="offset"
         dy="0"
         dx="0"
         id="feOffset1104" />
      <feComposite
         result="fbSourceGraphic"
         operator="over"
         in="fbSourceGraphic"
         id="feComposite1106"
         in2="offset" />
      <feColorMatrix
         id="feColorMatrix1108"
         values="0 0 0 -1 0 0 0 0 -1 0 0 0 0 -1 0 0 0 0 1 0"
         in="fbSourceGraphic"
         result="fbSourceGraphicAlpha" />
      <feFlood
         in="fbSourceGraphic"
         result="flood"
         flood-color="rgb(0,0,0)"
         flood-opacity="0.498039"
         id="feFlood1110" />
      <feComposite
         result="composite1"
         operator="in"
         in="flood"
         id="feComposite1112"
         in2="fbSourceGraphic" />
      <feGaussianBlur
         result="blur"
         stdDeviation="0.5"
         in="composite1"
         id="feGaussianBlur1114" />
      <feOffset
         result="offset"
         dy="0"
         dx="0"
         id="feOffset1116" />
      <feComposite
         result="composite2"
         operator="over"
         in="fbSourceGraphic"
         id="feComposite1118"
         in2="offset" />
    </filter>
  </defs>
  <g
     style="fill:#ffffff;filter:url(#filter1070)"
     id="toolbar">
    <path
       style="stroke:none;stroke-width:0.5;stroke-miterlimit:4;stroke-dasharray:none;stroke-opacity:1"
       d="M 14.7,10.7 C 14.464283,10.935746 14.000125,11 14.000125,11 H 9 l 2.132,2.085573 c 0.519423,0.508112 0.595,1.2729 0.198,1.6979 l -0.793,0.9549 c -0.396,0.424 -1.091,0.318 -1.587,-0.212 L 3.595,9.690773 3,8.946873 l 0.595,-0.743 5.256,-5.7295 c 0.496,-0.531 1.19,-0.637 1.587,-0.212 l 0.794,0.9549 c 0.396,0.425 0.297,1.1669 -0.198,1.6979 L 9,7 h 4.999875 c 0,0 0.464437,0.064342 0.700125,0.3 0.235717,0.2356875 0.299875,0.7 0.299875,0.7 l 2.5e-4,2 c 0,0 -0.06444,0.464283 -0.300125,0.7 z"
       id="back" />
    <path
       style="stroke:none;stroke-width:0.5;stroke-miterlimit:4;stroke-dasharray:none;stroke-opacity:1"
       id="back-large"
       d="m 16.441631,29.733331 c -0.275,0.275034 -0.816512,0.349996 -0.816512,0.349996 H 8.999927 l 2.487308,2.516543 c 0.595913,0.602917 0.694159,1.485034 0.230997,1.980862 l -0.925157,1.114039 C 10.33108,36.189432 9.5202547,36.065767 8.9415947,35.44744 L 2.6941594,28.639311 2,27.771437 2.6941594,26.904612 8.8260957,20.220265 c 0.57866,-0.619493 1.3883193,-0.743159 1.8514803,-0.24733 l 0.926324,1.114038 c 0.461995,0.495828 0.346497,1.361369 -0.230997,1.980863 l -2.37283,2.348836 h 6.6249 c 0,0 0.541837,0.07506 0.816804,0.349997 0.275,0.274966 0.34985,0.816658 0.34985,0.816658 l 1.46e-4,2.333346 c 0,0 -0.07518,0.541658 -0.350142,0.816658 z" />
    <path
       style="stroke:none;stroke-width:0.5;stroke-miterlimit:4;stroke-dasharray:none;stroke-opacity:1"
       id="forward"
       d="m 21.30025,10.7 c 0.235717,0.235746 0.699875,0.3 0.699875,0.3 h 5.000125 l -2.132,2.085573 c -0.519423,0.508112 -0.595,1.2729 -0.198,1.6979 l 0.793,0.9549 c 0.396,0.424 1.091,0.318 1.587,-0.212 l 5.355,-5.8356 0.595,-0.7439 -0.595,-0.743 -5.256,-5.7295 c -0.496,-0.531 -1.19,-0.637 -1.587,-0.212 l -0.794,0.9549 c -0.396,0.425 -0.297,1.1669 0.198,1.6979 L 27.00025,7 h -4.999875 c 0,0 -0.464437,0.064342 -0.700125,0.3 C 21.064533,7.5356875 21.000375,8 21.000375,8 l -2.5e-4,2 c 0,0 0.06444,0.464283 0.300125,0.7 z" />
    <path
       style="stroke:none;stroke-width:0.5;stroke-miterlimit:4;stroke-dasharray:none;stroke-opacity:1"
       d="M 51.5,4.64955 47.233834,8.949625 51.5,13.248616 49.366916,15.398166 45,11.201008 40.733834,15.5 38.60075,13.35045 42.866916,8.9485416 38.5,4.64955 40.633084,2.5 45,6.800075 49.266166,2.5 Z"
       id="stop" />
    <path
       style="stroke:none;stroke-width:0.5;stroke-miterlimit:4;stroke-dasharray:none;stroke-opacity:1"
       d="M 69,9 H 62 L 64.8,6.2 C 64.1,5.7 63.4,5.5 62.5,5.5 c -2.2,0 -4,1.8 -4,4 0,2.2 1.8,4 4,4 1.399,0 2.7,-0.7 3.399,-1.9 l 2.301,1 C 67.099,14.6 65,16 62.5,16 58.899,16 56,13.1 56,9.5 56,5.9 58.899,3 62.5,3 64,3 65.399,3.5 66.6,4.4 L 69,2 Z"
       id="reload" />
    <path
       style="stroke:none;stroke-width:0.5;stroke-miterlimit:4;stroke-dasharray:none;stroke-opacity:1"
       d="m 76,9 h -3 l 8,-7 8,7 h -3 v 6.5 H 82 V 12 h -2 v 3.5 h -4 z"
       id="home" />
    <path
       style="stroke:none;stroke-width:0.5;stroke-miterlimit:4;stroke-dasharray:none;stroke-opacity:1"
       d="m 91.5,9 h 4.453 V 2 h 6.093 V 9 H 106.5 L 99,16 Z"
       id="download" />
    <path
       style="stroke:none;stroke-width:0.5;stroke-miterlimit:4;stroke-dasharray:none;stroke-opacity:1"
       d="m 117,2 c -3.866,0 -7,3.134 -7,7 0,3.866 3.134,7 7,7 3.866,0 7,-3.134 7,-7 0,-3.866 -3.134,-7 -7,-7 z m 0,2 c 2.761,0 5,2.238 5,5 0,2.762 -2.239,5 -5,5 -2.762,0 -5,-2.238 -5,-5 0,-2.762 2.239,-5 5,-5 z m -0.7,1.2 C 116.0643,5.4357023 116,6 116,6 v 4 l 4,2 -2,-3 V 6 C 118,6 117.9357,5.4357023 117.7,5.2 117.4643,4.9642977 117,5 117,5 c 0,0 -0.4643,-0.035702 -0.7,0.2 z"
       id="history" />
    <g
       style="stroke:none;stroke-width:0.5;stroke-miterlimit:4;stroke-dasharray:none;stroke-opacity:1"
       id="bookmarks">
      <path
         style="stroke:none;stroke-width:0.5;stroke-miterlimit:4;stroke-dasharray:none;stroke-opacity:1"
         d="m 131,2 v 14 h 7.44922 0.55078 1.94922 c 0.99175,-0.258441 1.76717,-1.038297 2,-2 V 12 6 4 c -0.23283,-0.9617034 -1.00825,-1.7415586 -2,-2 h -1.63672 -0.86328 z m 6.11523,2.4160156 1.05469,1.7714844 c 0,0 0.29209,0.4878333 0.51953,0.6425781 0.21313,0.1449479 0.73828,0.2285157 0.73828,0.2285157 h 2.15625 l -1.49804,2.4335937 c 0,0 -0.21789,0.4778906 -0.32617,0.7167965 -0.16271,0.357558 0.005,0.982547 0.0586,1.566407 0.0848,0.918442 0.15039,1.80664 0.15039,1.80664 l -1.75,-0.894531 c 0,0 -0.71714,-0.337318 -1.10156,-0.337891 -0.45203,0 -1.29883,0.392579 -1.29883,0.392579 l -1.75391,0.841796 c 0,0 0.12894,-0.80101 0.26758,-1.68164 0.0917,-0.579219 0.34458,-1.238485 0.14063,-1.636719 -0.11058,-0.216562 -0.33204,-0.6484375 -0.33204,-0.6484375 l -1.7246,-2.5019531 h 2.14257 c 0,0 0.69711,-0.049193 0.98243,-0.2285156 0.21656,-0.1352084 0.48242,-0.5957032 0.48242,-0.5957032 z"
         id="bookmarks-star" />
      <path
         style="stroke:none;stroke-width:0.5;stroke-miterlimit:4;stroke-dasharray:none;stroke-opacity:1"
         d="m 129,2 c -0.99175,0.2584414 -1.76717,1.0382967 -2,2 v 2 6 2 c 0.23283,0.961703 1.00825,1.741559 2,2 h 2.5 V 12 6 2 Z"
         id="bookmarks-overlay" />
      <path
         style="stroke:#000000;stroke-width:0.5;stroke-miterlimit:4;stroke-dasharray:none;stroke-opacity:1"
         d="M 131.49914,2 V 16"
         id="bookmarks-divider" />
    </g>
    <path
       style="stroke:none;stroke-width:0.5;stroke-miterlimit:4;stroke-dasharray:none;stroke-opacity:1"
       d="m 160,14 h -2 l 1,2 h -12 l 1,-2 h -2 c -0.601,0 -1,-0.4 -1,-1 V 8 c 0,-0.6 0.70113,-0.635443 1,-1 0.38098,-0.4647208 0.61902,-1.0352792 1,-1.5 0.29887,-0.364557 0.399,-1 1,-1 V 3 c 0,-0.6 0.399,-1 1,-1 h 8 c 0.6,0 1,0.4 1,1 v 1.5 c 0.6,0 0.70113,0.635443 1,1 0.38098,0.4647208 0.61902,1.0352792 1,1.5 0.29887,0.364557 1,0.4 1,1 v 5 c 0,0.6 -0.4,1 -1,1 z M 148.5,9 h -0.5 -0.5 c -0.3,0 -0.5,0.2 -0.5,0.5 0,0.3 0.2,0.5 0.5,0.5 h 1 C 148.8,10 149,9.8 149,9.5 149,9.2 148.8,9 148.5,9 Z M 157,4 c 0,-0.6 -0.4,-1 -1,-1 h -6 c -0.601,0 -1,0.4 -1,1 v 3 c 0,0.6 0.399,1 1,1 h 6 c 0.6,0 1,-0.4 1,-1 z m -0.9,9 h -6.2 l -0.899,2 h 8 z"
       id="print" />
    <path
       style="stroke:none;stroke-width:0.5;stroke-miterlimit:4;stroke-dasharray:none;stroke-opacity:1"
       id="newtab"
       d="m 170.93359,2 -4.01562,0.00195 c 0,0.00178 -0.87681,0.216686 -0.87695,1.4980469 v 2.8164062 c 0,0 -0.0732,0.3643751 -0.19922,0.484375 C 165.69982,6.9357812 165.29102,7 165.29102,7 c 0,0 -0.53242,-0.057 -0.7754,0 -0.36297,0.086 -0.73599,0.236 -1,0.5 -0.26399,0.264 -0.41502,0.637 -0.5,1 -0.038,0.162 0,0.5 0,0.5 v 5.537109 c 0,0 0.24003,0.710891 0.5,0.962891 0.27398,0.267 1.03516,0.5 1.03516,0.5 h 13.0957 c 0,0 0.60287,-0.276 0.83985,-0.5 0.21699,-0.205 0.49023,-0.742188 0.49023,-0.742188 V 9 c 0.026,-0.322 0.038,-0.338 0,-0.5 -0.086,-0.363 -0.22624,-0.736 -0.49023,-1 -0.26398,-0.264 -0.63802,-0.415 -1,-0.5 -0.22799,-0.054 -0.69922,0 -0.69922,0 0,0 -0.44657,-0.056219 -0.60156,-0.1992188 -0.12799,-0.1189999 -0.19922,-0.484375 -0.19922,-0.484375 L 175.98828,3.5 C 175.98843,2.1047456 174.9707,2 174.9707,2 Z m -0.79101,5 h 1.71484 V 9.1425781 H 174 v 1.7148439 h -2.14258 V 13 h -1.71484 V 10.857422 H 168 V 9.1425781 h 2.14258 z" />
    <path
       style="stroke:none;stroke-width:0.5;stroke-miterlimit:4;stroke-dasharray:none;stroke-opacity:1"
       id="newwindow"
       d="M 182.4375,2 C 181.52354,2.2781435 181.28553,2.8114358 181,3.6875 V 14.125 c 0.21642,1.330001 0.75257,1.636052 2.0625,1.875 H 195 c 1.30474,-0.204204 1.70477,-0.57308 2,-1.875 V 4 C 196.8019,2.7723315 196.4998,2.3703399 195.3125,2 Z M 190,3 h 1 v 1 h -1 z m 2,0 h 1 v 1 h -1 z m 2,0 h 2 v 1 h -2 z m -11,3 h 12 v 8 h -12 z m 5.14258,1 V 9.1425781 H 186 v 1.7148439 h 2.14258 V 13 h 1.71484 V 10.857422 H 192 V 9.1425781 h -2.14258 V 7 Z" />
    <path
       style="stroke:none;stroke-width:0.5;stroke-miterlimit:4;stroke-dasharray:none;stroke-opacity:1"
       d="m 212.70159,16 c -0.79707,0 -1.49513,-0.2 -2.2922,-1.3 -0.79807,-1.1 -1.69515,-2.5 -1.69515,-2.5 0,0 -0.69706,-0.9 -1.09709,-1.6 -0.49805,-0.7 -1.0971,-0.5 -1.0971,-0.5 0,0 -2.89125,-4.7 -3.3903,-5.4 -0.59805,-1 0.59906,-2.7 0.59906,-2.7 l 4.38738,7 c 0,0 1.39612,1.9 1.89417,2.3 0.49904,0.4 1.39612,-0.4 2.79224,0.9 1.89417,1.8 1.29611,3.8 -0.10101,3.8 z m -0.29802,-2.9 c -0.89708,-1 -1.69415,-0.9 -1.89417,-0.6 -0.20002,0.3 0,1.2 0.39804,1.7 0.39803,0.5 0.79806,0.7 1.39612,0.7 0.59905,0.1 1.09709,-0.7 0.10001,-1.8 z m -3.78934,-4.7 -1.1961,-1.8 2.89125,-4.6 c 0,0 1.19611,1.7 0.59906,2.7 -0.29903,0.4 -1.39613,2.3 -2.29421,3.7 z m -4.5854,2.899 c 0.29903,-0.3 0.99709,-1.1 1.39613,-1.7 l 0.79806,1.2 c -0.39803,0.6 -0.89707,1.4 -0.89707,1.4 0,0 -0.89608,1.4 -1.69415,2.5 -0.69806,1.1 -1.39612,1.3 -2.2932,1.3 -1.39613,0 -2.09419,-2 -0.10001,-3.8 1.39412,-1.199 2.2912,-0.499 2.79024,-0.9 z m -2.39321,1.801 c -0.89708,1 -0.39803,1.8 0.19902,1.8 0.59905,0 0.99709,-0.2 1.39612,-0.7 0.39804,-0.5 0.59806,-1.5 0.39804,-1.7 -0.29803,-0.3 -1.0961,-0.4 -1.99318,0.6 z"
       id="cut" />
    <path
       style="stroke:none;stroke-width:0.5;stroke-miterlimit:4;stroke-dasharray:none;stroke-opacity:1"
       d="m 231,16 h -6 c -0.601,0 -1,-0.4 -1,-1 V 12 9.4 7 c 0,-0.6 0.399,-1 1,-1 0,0 3.2,0 5,0 l 2,2 c 0,2.2 0,7 0,7 0,0.6 -0.4,1 -1,1 z m -2,-9 v 2 h 2 z M 223,5.9 V 7 8.9 12 h -4 c -0.601,0 -1,-0.4 -1,-1 V 3 c 0,-0.6 0.399,-1 1,-1 0,0 3.2,0 5,0 l 2,2 c 0,0.4 0,0.8 0,1.3 h -2.5 C 223.2,5.4 223,5.6 223,5.9 Z M 223,3 v 2 h 2 z"
       id="copy" />
    <path
       style="stroke:none;stroke-width:0.5;stroke-miterlimit:4;stroke-dasharray:none;stroke-opacity:1"
       d="m 246.8507,16 h -7.7014 C 238.26914,16 237.5,15.3 237.5,14.5 v -9 c 0,-0.8 0.77014,-1.5 1.6493,-1.5 h 1.6503 c 0,0 0,-2 2.2004,-2 2.2004,0 2.2004,2 2.2004,2 h 1.6493 c 0.88016,0 1.6503,0.7 1.6503,1.5 v 9 c 0.001,0.799 -0.76914,1.5 -1.6493,1.5 z M 245.97054,5 244.76032,4.5 c 0,0 0,-1.5 -1.76032,-1.5 -1.76032,0 -1.76032,1.5 -1.76032,1.5 l -1.21122,0.5 -0.5501,1 h 2.7505 3.52164 0.88016 z m 0.11002,1.7 h -5.17094 l -3.3016,1.7 3.08056,4.9 7.26232,-3.8 z"
       id="paste" />
    <path
       style="stroke:none;stroke-width:0.5;stroke-miterlimit:4;stroke-dasharray:none;stroke-opacity:1"
       d="M 265,12 V 6 l 3,3 z m -7,1 h 6 l -3,3 z m 0,-1 V 6 h 6 v 6 z m 5,-4 h -4 v 3 h 4 z m -2,-6 3,3 h -6 z m -4,4 v 6 l -3,-3 z"
       id="fullscreen" />
    <path
       style="stroke:none;stroke-width:0.5;stroke-miterlimit:4;stroke-dasharray:none;stroke-opacity:1"
       d="m 274,8 h 10 v 2 h -10 z"
       id="minus" />
    <path
       style="stroke:none;stroke-width:0.5;stroke-miterlimit:4;stroke-dasharray:none;stroke-opacity:1"
       d="m 302,10 h -4 v 4 h -2 v -4 h -4 V 8 h 4 V 4 h 2 v 4 h 4 z"
       id="plus" />
    <path
       style="stroke:none;stroke-width:0.5;stroke-miterlimit:4;stroke-dasharray:none;stroke-opacity:1"
       d="m 321.96164,9.3589991 c -0.0996,0.5880529 -0.19907,1.1749739 -0.39904,1.6649929 -0.39904,1.272996 -2.49721,3.230982 -2.49721,3.230982 l 1.23012,1.745023 -4.92726,6e-6 V 9.849 c 0,0 0.89889,1.46799 1.39795,2.05599 1.19912,-0.588025 1.99814,-1.762997 2.09818,-2.9380158 0.10109,-0.8810027 -0.19905,-1.6639894 -0.59902,-2.2510039 -0.18813,-0.3229439 -0.42109,-0.5799624 -0.68685,-0.7931908 -0.30005,-0.23897 -1.01208,-0.5779774 -1.01208,-0.5779774 l 0.0174,-3.3306603 c 1.03186,0.2680556 1.4999,0.3864246 2.85781,1.3686643 1.67715,1.2509803 2.78224,3.5019854 2.52022,5.9759989 z m -6.99262,-1.9580198 c 0,0 -1.09884,-1.4681946 -1.59912,-1.9580122 -1.39809,0.6859994 -2.19718,1.957993 -2.19714,3.3290059 0.39151,1.955025 1.15486,2.878079 2.87049,3.728027 V 16 c -1.14823,-0.14515 -2.89657,-1.144129 -3.76062,-2.017966 -1.64214,-1.695027 -2.56324,-3.735 -2.20626,-6.1889776 0.1,-0.6850241 0.30006,-1.3699914 0.49903,-1.9580159 0.40011,-1.0769929 1.10011,-1.957978 2.09921,-2.6429982 0.0997,-0.098323 0.199,-0.098023 0.29929,-0.1955973 -0.39905,-0.3919885 -1.2861,-0.9964444 -1.2861,-0.9964444 l 5.35545,-1.3e-6 z"
       id="sync" />
    <path
       style="stroke:none;stroke-width:0.5;stroke-miterlimit:4;stroke-dasharray:none;stroke-opacity:1"
       d="m 339.29905,15.9 h -1.49989 c -0.39997,0 -0.79995,-0.3 -0.79995,-0.8 0,0 0.29998,-3.6 -3.19977,-7.2 -2.49982,-3 -6.9995,-3.2 -6.9995,-3.2 C 326.29998,4.7 326,4.4 326,4 V 2.6 c 0,-0.4 0.29998,-0.7 0.79994,-0.7 0,0 6.29955,0.4 9.59932,4.5 3.29976,3.1 3.60074,8.8 3.60074,8.8 -10e-4,0.4 -0.20099,0.7 -0.70095,0.7 z m -12.49911,-9 c 0,0 3.69974,0.5 5.79959,2.4 2.09985,2 2.49982,5.9 2.49982,5.9 0,0.4 -0.1,0.8 -0.49996,0.8 h -1.4999 c -0.39997,0 -0.59995,-0.3 -0.59995,-0.8 0,0 0.1,-2.4 -1.80088,-4.2 C 329.19877,9.7 326.79994,9.6 326.79994,9.6 326.29998,9.6 326,9.3 326,8.9 V 7.6 c 0,-0.4 0.29998,-0.7 0.79994,-0.7 z m 1.19992,5 c 1.09992,0 1.99985,0.9 1.99985,2 0,1.1 -0.89993,2 -1.99985,2 C 326.89894,15.9 326,15 326,13.9 c 0,-1.1 0.89994,-2 1.99986,-2 z"
       id="rss" />
    <path
       style="stroke:none;stroke-width:0.5;stroke-miterlimit:4;stroke-dasharray:none;stroke-opacity:1"
       d="m 344.5,5 c 0,0 0.0643,-0.4642977 0.3,-0.7 0.2357,-0.2357023 0.7,-0.3 0.7,-0.3 h 7.5 c 0,0 0.4643,0.064298 0.7,0.3 0.2357,0.2357023 0.3,0.7 0.3,0.7 v 2 l 4.0245,-3 -0.049,10 L 354,11 v 2 c 0,0 -0.0643,0.464298 -0.3,0.7 -0.2357,0.235702 -0.7,0.3 -0.7,0.3 h -7.5 c 0,0 -0.4643,-0.0643 -0.7,-0.3 -0.2357,-0.235702 -0.3,-0.7 -0.3,-0.7 z"
       id="webrtc" />
    <path
       style="stroke:none;stroke-width:0.5;stroke-miterlimit:4;stroke-dasharray:none;stroke-opacity:1"
       id="bookmark-none"
       d="m 369.20312,1 -1.9082,3.2734375 c 0,0 -0.46184,0.8030625 -0.83984,1.0390625 -0.498,0.313 -1.71875,0.3984375 -1.71875,0.3984375 H 361 l 3.00781,4.3652345 c 0,0 0.38708,0.754812 0.58008,1.132812 0.356,0.6951 -0.0841,1.844469 -0.24414,2.855469 -0.242,1.5371 -0.4668,2.935547 -0.4668,2.935547 l 3.06055,-1.466797 c 0,0 1.47663,-0.685547 2.26562,-0.685547 0.671,10e-4 1.92579,0.587891 1.92579,0.587891 l 3.05273,1.5625 c 0,0 -0.11177,-1.549244 -0.25976,-3.152344 -0.093,-1.0191 -0.38752,-2.112228 -0.10352,-2.736328 0.189,-0.417 0.56836,-1.2519531 0.56836,-1.2519531 L 377,5.6113281 h -3.76172 c 0,0 -0.91706,-0.1454375 -1.28906,-0.3984375 -0.397,-0.2701 -0.90625,-1.1210937 -0.90625,-1.1210937 z m -0.0762,3 1.15039,1.9316406 c 0,0 0.31633,0.5323647 0.56446,0.7011719 0.23249,0.1581201 0.80664,0.25 0.80664,0.25 H 374 l -1.63281,2.6542969 c 0,0 -0.23929,0.5206326 -0.35742,0.7812496 -0.17749,0.39005 0.008,1.074021 0.0664,1.710938 C 372.16866,13.031203 372.23828,14 372.23828,14 l -1.9082,-0.978516 c 0,0 -0.78376,-0.366562 -1.20313,-0.367187 -0.4931,0 -1.41601,0.429687 -1.41601,0.429687 L 365.79883,14 c 0,0 0.13977,-0.873327 0.29101,-1.833984 0.1,-0.631855 0.37484,-1.350734 0.15235,-1.785157 -0.12063,-0.236243 -0.36133,-0.708984 -0.36133,-0.708984 L 364,6.9453125 h 2.33594 c 0,0 0.76298,-0.054381 1.07422,-0.25 0.23624,-0.1474953 0.52343,-0.6484375 0.52343,-0.6484375 z" />
    <path
       style="stroke:none;stroke-width:0.5;stroke-miterlimit:4;stroke-dasharray:none;stroke-opacity:1"
       id="bookmark-added"
       d="m 369.202,19 -1.908,3.2732 c 0,0 -0.461,0.8031 -0.839,1.0391 -0.498,0.313 -1.718,0.399 -1.718,0.399 H 361 l 3.008,4.3643 c 0,0 0.387,0.755 0.58,1.133 0.356,0.6951 -0.084,1.8452 -0.244,2.8562 C 364.102,33.6019 363.877,35 363.877,35 l 3.06,-1.4671 c 0,0 1.477,-0.686 2.266,-0.686 0.671,0.001 1.925,0.588 1.925,0.588 l 3.053,1.5641 c 0,0 -0.112,-1.5501 -0.26,-3.1532 -0.093,-1.0191 -0.388,-2.1121 -0.104,-2.7362 0.189,-0.417 0.57,-1.252 0.57,-1.252 L 377,23.6123 h -3.763 c 0,0 -0.917,-0.146 -1.289,-0.399 -0.397,-0.2701 -0.906,-1.1221 -0.906,-1.1221 z" />
  </g>
</svg>
