<?xml version="1.0" encoding="UTF-8" standalone="no"?>
<!-- This Source Code Form is subject to the terms of the Mozilla Public
   - License, v. 2.0. If a copy of the MPL was not distributed with this
   - file, You can obtain one at http://mozilla.org/MPL/2.0/. -->

<svg
   xmlns:dc="http://purl.org/dc/elements/1.1/"
   xmlns:cc="http://creativecommons.org/ns#"
   xmlns:rdf="http://www.w3.org/1999/02/22-rdf-syntax-ns#"
   xmlns:svg="http://www.w3.org/2000/svg"
   xmlns="http://www.w3.org/2000/svg"
   xmlns:sodipodi="http://sodipodi.sourceforge.net/DTD/sodipodi-0.dtd"
   xmlns:inkscape="http://www.inkscape.org/namespaces/inkscape"
   width="32"
   height="32"
   viewBox="0 0 32 32"
   id="svg2"
   version="1.1"
   inkscape:version="0.91 r13725"
   sodipodi:docname="identity-icons-brand.svg">
  <metadata
     id="metadata10">
    <rdf:RDF>
      <cc:Work
         rdf:about="">
        <dc:format>image/svg+xml</dc:format>
        <dc:type
           rdf:resource="http://purl.org/dc/dcmitype/StillImage" />
      </cc:Work>
    </rdf:RDF>
  </metadata>
  <defs
     id="defs8" />
  <sodipodi:namedview
     pagecolor="#ffffff"
     bordercolor="#666666"
     borderopacity="1"
     objecttolerance="10"
     gridtolerance="10"
     guidetolerance="10"
     inkscape:pageopacity="0"
     inkscape:pageshadow="2"
     inkscape:window-width="909"
     inkscape:window-height="821"
     id="namedview6"
     showgrid="false"
     inkscape:zoom="7.375"
     inkscape:cx="16"
     inkscape:cy="16"
     inkscape:window-x="0"
     inkscape:window-y="0"
     inkscape:window-maximized="0"
     inkscape:current-layer="svg2" />
  <g
     transform="matrix(0.09806566,0,0,0.09806566,0.8046769,0.794967)"
     id="g4695">
    <circle
       r="152.95874"
       cy="155.04951"
       cx="154.9505"
       id="path4138"
       style="fill:#159677;fill-opacity:1;stroke:none;stroke-width:1.02310705;stroke-linejoin:round;stroke-miterlimit:4;stroke-dasharray:none;stroke-opacity:0" />
    <ellipse
       ry="141.58415"
       rx="138.61386"
       cy="155.54456"
       cx="156.43564"
       id="path4136"
       style="fill:#ffffff;fill-opacity:1;stroke:#ffffff;stroke-width:1;stroke-linejoin:round;stroke-miterlimit:4;stroke-dasharray:none;stroke-opacity:0.65116278" />
    <path
       sodipodi:nodetypes="csssssssssssssssssssssssssssssssssccssssssssssssssssssssssscssssssssssssssssssscssssssssssscssssssssssssssssscs"
       inkscape:connector-curvature="0"
       id="path4158"
       d="m 127.95182,303.54475 c -5.42765,-1.02093 -14.92656,-3.62133 -21.1087,-5.77867 -6.18214,-2.15735 -16.30326,-6.64613 -22.491383,-9.9751 -6.188122,-3.32895 -15.51351,-9.36105 -20.723085,-13.40464 -5.209574,-4.04361 -13.693816,-11.9823 -18.853871,-17.64159 -5.160055,-5.65926 -12.06401,-14.49733 -15.342124,-19.64014 -3.278112,-5.14282 -8.18276,-14.29065 -10.899218,-20.3285 -2.716457,-6.03785 -6.483488,-16.75495 -8.371181,-23.8158 -3.1894021,-11.92984 -3.4283741,-14.53982 -3.3785531,-36.89976 0.04858,-21.80859 0.360979,-25.24403 3.3358421,-36.68566 1.805227,-6.94309 5.548131,-17.66019 8.317568,-23.815802 2.769436,-6.15561 7.62586,-15.25077 10.792053,-20.21147 3.166194,-4.96071 9.969264,-13.68367 15.117932,-19.38435 5.148669,-5.70068 13.584686,-13.67575 18.746703,-17.72237 5.162016,-4.04663 14.534575,-10.17782 20.827907,-13.62488 6.29333,-3.447075 16.4997,-8.008262 22.68081,-10.135983 6.18112,-2.127723 16.53517,-4.7966559 23.00901,-5.9309599 6.47383,-1.134304 18.3156,-2.062372 26.31504,-2.062372 7.99944,0 19.82639,0.945049 26.28214,2.10011 21.43411,3.8349939 41.18811,12.0048139 59.18524,24.4777049 5.61631,3.89237 14.25757,10.97893 19.20284,15.7479 4.94527,4.76898 12.60023,13.67935 17.01106,19.80084 4.4108,6.12148 10.53577,16.44926 13.61104,22.95063 3.07526,6.50136 6.78194,15.890682 8.23707,20.865142 4.02216,13.75005 6.31582,29.59534 6.31582,43.63152 0,6.96612 -0.83802,17.67103 -1.86224,23.78868 -1.02423,6.11765 -3.25757,15.70525 -4.96297,21.3058 -1.70539,5.60055 -5.38687,14.82601 -8.18104,20.50104 -2.79419,5.67501 -7.64271,14.05839 -10.77448,18.62971 -3.13178,4.57132 -9.10633,12.11081 -13.27676,16.75444 -4.17045,4.64364 -12.40091,12.21847 -18.28992,16.83296 -5.88901,4.61451 -15.53733,10.99562 -21.44069,14.18023 -5.90338,3.18462 -15.73944,7.53716 -21.8579,9.67228 -6.11847,2.13512 -16.11243,4.78805 -22.20881,5.89538 -13.76317,2.49991 -41.47336,2.46144 -54.96515,-0.0763 z m 95.95681,-34.54419 c 4.84748,-2.98012 11.90936,-7.88086 15.69306,-10.89052 9.51274,-7.5667 22.9262,-22.65624 27.77856,-31.24963 2.2286,-3.94679 5.30879,-9.3466 6.84486,-11.9996 3.49738,-6.0404 8.26443,-19.14099 10.98415,-30.18613 1.14496,-4.6498 2.3724,-15.185 2.72766,-23.41156 0.47109,-10.90872 0.0836,-18.06479 -1.43178,-26.43737 -1.14274,-6.31401 -3.75449,-16.30674 -5.8039,-22.20607 -2.04939,-5.89934 -6.17923,-15.072922 -9.17742,-20.385742 -2.99817,-5.31282 -8.76002,-13.75669 -12.80407,-18.76417 -4.04408,-5.00747 -11.91062,-12.91922 -17.48121,-17.58167 -5.57059,-4.66246 -15.10386,-11.18977 -21.18507,-14.50516 -6.0812,-3.31537 -16.39496,-7.78029 -22.91947,-9.92203 -6.52451,-2.14175 -17.09287,-4.62781 -23.48523,-5.5246 -15.66988,-2.19833 -36.24257,-0.92992 -51.7837,3.19271 -6.71499,1.78131 -17.46036,5.82975 -23.8786,8.99654 -6.41823,3.16679 -15.183985,8.24369 -19.479452,11.282 -4.29547,3.03832 -11.892389,9.56341 -16.882046,14.5002 -4.989657,4.93681 -11.871045,13.20489 -15.291972,18.37351 -3.420927,5.16863 -8.254042,13.61841 -10.740253,18.777312 -2.486214,5.1589 -5.979551,14.52352 -7.762975,20.81027 -2.469225,8.70428 -3.404826,15.48348 -3.922826,28.42407 -0.65147,16.27502 0.295164,26.82296 3.467979,38.64214 0.725043,2.70089 1.767851,4.62129 2.317351,4.26755 0.549502,-0.35373 1.392334,-6.06899 1.872964,-12.70056 1.190411,-16.42492 6.155827,-46.05672 10.044947,-59.9446 1.762181,-6.29266 4.82574,-14.77934 6.807909,-18.8593 1.982169,-4.079952 5.732589,-9.694472 8.334265,-12.476692 2.601677,-2.78222 7.577332,-6.41018 11.057011,-8.06215 3.90144,-1.85219 12.070798,-3.809 21.311209,-5.1047 20.984849,-2.94249 33.033109,-5.449 44.795139,-9.31916 9.92991,-3.26731 10.32965,-3.29583 18.93362,-1.35105 4.83424,1.0927 13.35945,3.82237 18.94491,6.06593 5.58545,2.24356 13.99331,7.03655 18.6841,10.65107 4.69079,3.61453 9.93351,7.32393 11.65049,8.24313 1.71697,0.91919 4.95268,2.08197 7.19047,2.58395 2.23778,0.50198 4.62594,1.99721 5.30702,3.32274 0.68107,1.32554 1.23832,3.891442 1.23832,5.702012 0,1.81056 1.63028,5.96953 3.62285,9.24215 3.21856,5.28622 4.73947,10.04311 10.08948,31.55662 0.92947,3.73762 4.04159,8.72905 9.52741,15.28064 4.48088,5.35142 10.74764,11.59353 13.92613,13.87134 3.17848,2.2778 10.30492,5.83438 15.83652,7.9035 l 10.05747,3.76204 -7.71646,-0.71854 c -4.24405,-0.3952 -10.56564,-1.84618 -14.04798,-3.22439 -4.67209,-1.84908 -6.33154,-2.07443 -6.33154,-0.85974 0,0.90535 1.74283,5.6497 3.87296,10.54298 2.13014,4.89327 4.38109,10.38816 5.00212,12.21084 0.96638,2.8362 0.90309,2.99055 -0.439,1.07068 -0.8625,-1.2338 -3.41486,-5.637 -5.67192,-9.78491 -2.25707,-4.14788 -9.19573,-13.6736 -15.41923,-21.16827 -6.22352,-7.49466 -12.86479,-16.84574 -14.7584,-20.78018 -1.89359,-3.93445 -4.63511,-11.25056 -6.09226,-16.25804 -1.45714,-5.00747 -3.96487,-10.79642 -5.57274,-12.86432 l -2.92338,-3.75984 -7.71296,2.78024 c -4.24214,1.52914 -13.61474,4.23274 -20.82802,6.00801 -7.21327,1.77528 -15.50448,4.48222 -18.4249,6.01543 -7.94513,4.17117 -19.55264,13.14845 -26.16757,20.23806 -7.01295,7.51618 -11.57143,17.33819 -10.36686,22.33714 0.45791,1.90038 2.63917,5.79906 4.84724,8.66374 2.20805,2.86468 6.79857,10.37507 10.20113,16.68975 3.40258,6.31467 9.43687,15.20572 13.40954,19.75788 3.97268,4.55215 11.5586,11.46227 16.85758,15.35582 5.299,3.89355 16.92011,14.17072 25.82468,22.83815 8.90456,8.66743 16.73876,15.75898 17.4093,15.75898 0.67056,0 5.18531,-2.43829 10.03279,-5.41843 z M 161.46447,98.864488 c 1.7617,-0.69765 3.20307,-2.09825 3.20307,-3.11245 0,-1.0142 -0.88883,-2.19927 -1.97519,-2.63348 -2.53984,-1.01516 -8.49431,-1.01516 -11.03414,0 -1.08636,0.43421 -1.97519,1.5757 -1.97519,2.53666 0,2.02856 3.43173,4.380972 6.47443,4.438172 1.15718,0.0218 3.54534,-0.531252 5.30702,-1.228902 z"
       style="fill:#159677;fill-opacity:1;stroke:#159677;stroke-width:1.00678515;stroke-linejoin:round;stroke-miterlimit:4;stroke-dasharray:none;stroke-opacity:0.65116278" />
  </g>
</svg>
